<?xml version="1.0" encoding="UTF-8" standalone="no"?>
<svg width="159px" height="155px" viewBox="0 0 159 155" version="1.1" xmlns="http://www.w3.org/2000/svg" xmlns:xlink="http://www.w3.org/1999/xlink" xmlns:sketch="http://www.bohemiancoding.com/sketch/ns">
    <!-- Generator: Sketch 3.1.1 (8761) - http://www.bohemiancoding.com/sketch -->
    <title>g20</title>
    <desc>Created with Sketch.</desc>
    <defs></defs>
    <g id="Page-1" stroke="none" stroke-width="1" fill="none" fill-rule="evenodd" sketch:type="MSPage">
        <g id="g14" sketch:type="MSLayerGroup" transform="translate(331.250000, 254.093750) scale(1, -1) translate(-331.250000, -254.093750) translate(1.250000, 0.593750)" fill="#4990E2">
            <g id="g20" transform="translate(-0.328375, 353.000000)" sketch:type="MSShapeGroup">
                <path d="M55,1.25 L56.21875,9.81625 C56.62375,12.4575 56.87,15.1225 56.95125,17.81 C57.03,20.49625 57.115,26.1475 57.19625,34.765 L58.3275,35.9125 L63.74875,35.9125 L64.88125,34.77 C65.0525,27.645 65.48125,21.54375 66.17875,16.45375 C68.855,12.47 73.475,9.2275 80.04,6.72875 C86.605,4.22375 93.0775,2.97625 99.47,2.97625 C108.625,2.97625 115.945,5.4125 121.43,10.29625 C126.9125,15.17375 129.6575,20.995 129.6575,27.76 C129.6575,31.44125 128.66875,34.6275 126.695,37.32625 C124.71625,40.02 121.73875,42.24375 117.745,44 C113.755,45.755 106.6125,47.83 96.315,50.23375 C87.47375,52.285 81.2925,53.89125 77.77625,55.0475 C74.2525,56.2025 70.86125,58.14625 67.6025,60.88625 C64.34375,63.625 61.85,66.9875 60.13375,70.96625 C58.41875,74.94625 57.5625,79.3325 57.5625,84.13 C57.5625,95.5725 62.11875,104.7325 71.23375,111.60625 C80.34875,118.48 91.71625,121.91625 105.32625,121.91625 C111.05625,121.91625 117.30625,121.12625 124.07125,119.555 C130.83,117.9825 135.97,116.4725 139.48125,115.03125 L140.63625,113.2475 C139.8525,109.845 139.36625,100.91875 139.1725,86.47 L137.9775,85.32 L132.6825,85.32 L131.48625,86.47 C131.14375,91.66125 130.675,95.2975 130.08,97.385 C129.485,99.46625 127.9525,101.725 125.48875,104.14875 C123.01875,106.575 119.53,108.61625 115.025,110.27375 C110.5175,111.9325 105.755,112.7675 100.74125,112.7675 C95.5475,112.7675 91.19,111.995 87.6625,110.4575 C84.12875,108.9125 81.28,106.58 79.11375,103.45875 C76.94125,100.33625 75.86,96.54375 75.86,92.09625 C75.86,88.84125 76.52375,85.93125 77.855,83.36375 C79.1825,80.79125 81.22375,78.715 83.96875,77.13 C86.7125,75.5475 89.58375,74.41375 92.585,73.73375 L106.6125,70.1375 C118.62125,67.22125 127.215,64.69375 132.4075,62.555 C137.6,60.41625 141.6075,57.185 144.43875,52.86375 C146.9375,49.04875 148.2675,44.47375 148.5625,39.225 C154.1025,50.0125 157.24875,62.22875 157.24875,75.1925 C157.24875,118.73375 121.95,154.03 78.41125,154.03 C34.86,154.03 -0.43375,118.73375 -0.43375,75.1925 C-0.43375,39.5725 22.41,9.73 54.8325,-0.05 L55,1.25 L55,1.25 Z" id="path22"></path>
            </g>
        </g>
    </g>
</svg>